# This file uses centimeters as units for non-parametric coordinates.

g default
v 0.250000 0.500000 -0.433013
v -0.250000 0.500000 -0.433013
v -0.500000 0.500000 -0.000000
v -0.250000 0.500000 0.433013
v 0.250000 0.500000 0.433013
v 0.500000 0.500000 0.000000
v 0.375000 0.933013 -0.649519
v -0.375000 0.933013 -0.649519
v -0.750000 0.933013 -0.000000
v -0.375000 0.933013 0.649519
v 0.375000 0.933013 0.649519
v 0.750000 0.933013 0.000000
v 0.625000 0.933013 -1.082532
v -0.625000 0.933013 -1.082532
v -1.250000 0.933013 -0.000000
v -0.625000 0.933013 1.082532
v 0.625000 0.933013 1.082532
v 1.250000 0.933013 0.000000
v 0.750000 0.500000 -1.299038
v -0.750000 0.500000 -1.299038
v -1.500000 0.500000 -0.000000
v -0.750000 0.500000 1.299038
v 0.750000 0.500000 1.299038
v 1.500000 0.500000 0.000000
v 0.625000 0.066987 -1.082532
v -0.625000 0.066987 -1.082532
v -1.250000 0.066987 -0.000000
v -0.625000 0.066987 1.082532
v 0.625000 0.066987 1.082532
v 1.250000 0.066987 0.000000
v 0.375000 0.066987 -0.649519
v -0.375000 0.066987 -0.649519
v -0.750000 0.066987 -0.000000
v -0.375000 0.066987 0.649519
v 0.375000 0.066987 0.649519
v 0.750000 0.066987 0.000000
vt 0.735451 0.314910
vt 0.735453 0.228104
vt 0.791492 0.234025
vt 0.791490 0.308990
vt 0.679413 0.308988
vt 0.679414 0.234024
vt 0.735450 0.381998
vt 0.141677 0.485230
vt 0.281774 0.660521
vt 0.791489 0.381999
vt 0.679411 0.381997
vt 0.225735 0.630823
vt 0.735449 0.438037
vt 0.791488 0.466057
vt 0.679410 0.466055
vt 0.735453 0.093928
vt 0.735455 0.018171
vt 0.791494 0.001995
vt 0.791492 0.088007
vt 0.679414 0.088006
vt 0.679417 0.001992
vt 0.735453 0.161016
vt 0.001580 0.663177
vt 0.141677 0.679354
vt 0.791492 0.161016
vt 0.679414 0.161016
vt 0.337813 0.657865
vt 0.225735 0.533761
vt 0.281774 0.504063
vt 0.141677 0.420522
vt 0.533949 0.485230
vt 0.449891 0.533761
vt 0.393852 0.504063
vt 0.533949 0.420522
vt 0.449891 0.630823
vt 0.393852 0.660521
vt 0.618007 0.533762
vt 0.674046 0.501407
vt 0.533949 0.679355
vt 0.533949 0.744063
vt 0.618007 0.630824
vt 0.674046 0.663178
vt 0.393852 0.322851
vt 0.057619 0.630823
vt 0.337813 0.500798
vt 0.337813 0.328772
vt 0.281774 0.809011
vt 0.281774 0.322851
vt 0.393852 0.171704
vt 0.141677 0.744062
vt 0.057619 0.533761
vt 0.337813 0.171705
vt 0.001580 0.501407
vt 0.281774 0.171705
vt 0.393852 0.031607
vt 0.337813 0.003588
vt 0.281774 0.031607
vt 0.393852 0.809012
vt 0.393851 0.981831
vt 0.337812 0.998008
vt 0.337813 0.814933
vt 0.281773 0.981831
vn -0.000000 0.447214 0.894427
vn -0.000000 0.447214 0.894427
vn -0.000000 0.447214 0.894427
vn -0.000000 0.447214 0.894427
vn 0.774597 0.447214 0.447214
vn 0.774597 0.447214 0.447214
vn 0.774597 0.447214 0.447214
vn 0.774597 0.447214 0.447214
vn 0.774597 0.447214 -0.447213
vn 0.774597 0.447214 -0.447214
vn 0.774597 0.447214 -0.447213
vn 0.774597 0.447214 -0.447213
vn 0.000000 0.447214 -0.894427
vn 0.000000 0.447214 -0.894427
vn 0.000000 0.447214 -0.894427
vn 0.000000 0.447214 -0.894427
vn -0.774597 0.447214 -0.447214
vn -0.774597 0.447214 -0.447214
vn -0.774597 0.447214 -0.447214
vn -0.774597 0.447214 -0.447214
vn -0.774597 0.447214 0.447213
vn -0.774597 0.447214 0.447213
vn -0.774597 0.447214 0.447213
vn -0.774597 0.447214 0.447213
vn 0.000000 1.000000 -0.000000
vn 0.000000 1.000000 -0.000000
vn 0.000000 1.000000 -0.000000
vn 0.000000 1.000000 -0.000000
vn -0.000000 1.000000 0.000000
vn -0.000000 1.000000 -0.000000
vn -0.000000 1.000000 -0.000000
vn -0.000000 1.000000 -0.000000
vn -0.000000 1.000000 -0.000000
vn -0.000000 1.000000 -0.000000
vn -0.000000 1.000000 -0.000000
vn -0.000000 1.000000 0.000000
vn 0.000000 1.000000 0.000000
vn -0.000000 1.000000 0.000000
vn -0.000000 1.000000 0.000000
vn -0.000000 1.000000 0.000000
vn 0.000000 1.000000 0.000000
vn 0.000000 1.000000 0.000000
vn 0.000000 1.000000 0.000000
vn 0.000000 1.000000 0.000000
vn 0.000000 1.000000 -0.000000
vn 0.000000 1.000000 -0.000000
vn 0.000000 1.000000 -0.000000
vn 0.000000 1.000000 -0.000000
vn 0.000000 0.447214 -0.894427
vn 0.000000 0.447214 -0.894427
vn 0.000000 0.447214 -0.894427
vn 0.000000 0.447214 -0.894427
vn -0.774597 0.447213 -0.447214
vn -0.774597 0.447214 -0.447214
vn -0.774597 0.447214 -0.447214
vn -0.774597 0.447214 -0.447214
vn -0.774597 0.447214 0.447213
vn -0.774597 0.447214 0.447213
vn -0.774597 0.447214 0.447213
vn -0.774597 0.447214 0.447213
vn 0.000000 0.447214 0.894427
vn 0.000000 0.447214 0.894427
vn 0.000000 0.447214 0.894427
vn 0.000000 0.447214 0.894427
vn 0.774597 0.447213 0.447214
vn 0.774597 0.447213 0.447214
vn 0.774597 0.447213 0.447214
vn 0.774597 0.447214 0.447214
vn 0.774597 0.447214 -0.447213
vn 0.774597 0.447214 -0.447213
vn 0.774597 0.447214 -0.447213
vn 0.774597 0.447214 -0.447213
vn 0.000000 -0.447214 -0.894427
vn 0.000000 -0.447214 -0.894427
vn 0.000000 -0.447214 -0.894427
vn 0.000000 -0.447214 -0.894427
vn -0.774596 -0.447214 -0.447214
vn -0.774597 -0.447214 -0.447214
vn -0.774597 -0.447214 -0.447214
vn -0.774597 -0.447214 -0.447214
vn -0.774597 -0.447214 0.447213
vn -0.774597 -0.447214 0.447214
vn -0.774597 -0.447214 0.447213
vn -0.774597 -0.447213 0.447214
vn 0.000000 -0.447214 0.894427
vn 0.000000 -0.447214 0.894427
vn 0.000000 -0.447214 0.894427
vn 0.000000 -0.447214 0.894427
vn 0.774597 -0.447214 0.447214
vn 0.774597 -0.447214 0.447214
vn 0.774597 -0.447214 0.447214
vn 0.774597 -0.447214 0.447214
vn 0.774597 -0.447214 -0.447213
vn 0.774597 -0.447214 -0.447213
vn 0.774597 -0.447214 -0.447213
vn 0.774597 -0.447214 -0.447213
vn -0.000000 -1.000000 0.000000
vn -0.000000 -1.000000 0.000000
vn -0.000000 -1.000000 0.000000
vn -0.000000 -1.000000 0.000000
vn 0.000000 -1.000000 0.000000
vn 0.000000 -1.000000 0.000000
vn 0.000000 -1.000000 0.000000
vn 0.000000 -1.000000 0.000000
vn 0.000000 -1.000000 -0.000000
vn 0.000000 -1.000000 -0.000000
vn 0.000000 -1.000000 -0.000000
vn 0.000000 -1.000000 -0.000000
vn 0.000000 -1.000000 -0.000000
vn 0.000000 -1.000000 -0.000000
vn 0.000000 -1.000000 -0.000000
vn 0.000000 -1.000000 -0.000000
vn -0.000000 -1.000000 -0.000000
vn -0.000000 -1.000000 -0.000000
vn -0.000000 -1.000000 -0.000000
vn -0.000000 -1.000000 -0.000000
vn -0.000000 -1.000000 -0.000000
vn -0.000000 -1.000000 0.000000
vn -0.000000 -1.000000 -0.000000
vn -0.000000 -1.000000 0.000000
vn -0.000000 -0.447213 0.894427
vn -0.000000 -0.447213 0.894427
vn -0.000000 -0.447214 0.894427
vn -0.000000 -0.447213 0.894427
vn 0.774597 -0.447213 0.447214
vn 0.774597 -0.447214 0.447214
vn 0.774597 -0.447213 0.447214
vn 0.774597 -0.447213 0.447214
vn 0.774597 -0.447213 -0.447214
vn 0.774597 -0.447213 -0.447214
vn 0.774597 -0.447213 -0.447214
vn 0.774597 -0.447213 -0.447214
vn 0.000000 -0.447213 -0.894427
vn 0.000000 -0.447213 -0.894427
vn 0.000000 -0.447213 -0.894427
vn 0.000000 -0.447214 -0.894427
vn -0.774597 -0.447213 -0.447214
vn -0.774597 -0.447213 -0.447214
vn -0.774597 -0.447213 -0.447214
vn -0.774597 -0.447213 -0.447214
vn -0.774597 -0.447214 0.447214
vn -0.774597 -0.447214 0.447214
vn -0.774597 -0.447214 0.447214
vn -0.774597 -0.447214 0.447214
s 1
g pTorus1
f 2/1/1 1/2/2 8/4/3
f 8/4/3 1/2/2 7/3/4
s 2
f 3/7/5 2/1/6 9/10/7
f 9/10/7 2/1/6 8/4/8
s 3
f 4/13/9 3/7/10 10/14/11
f 10/14/11 3/7/10 9/10/12
s 4
f 5/16/13 4/17/14 11/19/15
f 11/19/15 4/17/14 10/18/16
s 5
f 6/22/17 5/16/18 12/25/19
f 12/25/19 5/16/18 11/19/20
s 6
f 1/2/21 6/22/22 7/3/23
f 7/3/23 6/22/22 12/25/24
s 7
f 8/31/25 7/32/26 14/34/27
f 14/34/27 7/32/26 13/33/28
s 8
f 9/37/29 8/31/30 15/38/31
f 15/38/31 8/31/30 14/34/32
s 9
f 10/41/33 9/37/34 16/42/35
f 16/42/35 9/37/34 15/38/36
s 10
f 11/39/37 10/41/38 17/40/39
f 17/40/39 10/41/38 16/42/40
s 11
f 12/35/41 11/39/42 18/36/43
f 18/36/43 11/39/42 17/40/44
s 12
f 7/32/45 12/35/46 13/33/47
f 13/33/47 12/35/46 18/36/48
s 13
f 14/43/49 13/33/50 20/46/51
f 20/46/51 13/33/50 19/45/52
s 14
f 15/49/53 14/43/54 21/52/55
f 21/52/55 14/43/54 20/46/56
s 15
f 16/55/57 15/49/58 22/56/59
f 22/56/59 15/49/58 21/52/60
s 16
f 17/58/61 16/59/62 23/61/63
f 23/61/63 16/59/62 22/60/64
s 17
f 18/36/65 17/58/66 24/27/67
f 24/27/67 17/58/66 23/61/68
s 18
f 13/33/69 18/36/70 19/45/71
f 19/45/71 18/36/70 24/27/72
s 19
f 20/46/73 19/45/74 26/48/75
f 26/48/75 19/45/74 25/29/76
s 20
f 21/52/77 20/46/78 27/54/79
f 27/54/79 20/46/78 26/48/80
s 21
f 22/56/81 21/52/82 28/57/83
f 28/57/83 21/52/82 27/54/84
s 22
f 23/61/85 22/60/86 29/47/87
f 29/47/87 22/60/86 28/62/88
s 23
f 24/27/89 23/61/90 30/9/91
f 30/9/91 23/61/90 29/47/92
s 24
f 19/45/93 24/27/94 25/29/95
f 25/29/95 24/27/94 30/9/96
s 25
f 26/30/97 25/29/98 32/8/99
f 32/8/99 25/29/98 31/28/100
s 26
f 27/53/101 26/30/102 33/51/103
f 33/51/103 26/30/102 32/8/104
s 27
f 28/23/105 27/53/106 34/44/107
f 34/44/107 27/53/106 33/51/108
s 28
f 29/50/109 28/23/110 35/24/111
f 35/24/111 28/23/110 34/44/112
s 29
f 30/9/113 29/50/114 36/12/115
f 36/12/115 29/50/114 35/24/116
s 30
f 25/29/117 30/9/118 31/28/119
f 31/28/119 30/9/118 36/12/120
s 31
f 32/5/121 31/6/122 2/1/123
f 2/1/123 31/6/122 1/2/124
s 32
f 33/11/125 32/5/126 3/7/127
f 3/7/127 32/5/126 2/1/128
s 33
f 34/15/129 33/11/130 4/13/131
f 4/13/131 33/11/130 3/7/132
s 34
f 35/20/133 34/21/134 5/16/135
f 5/16/135 34/21/134 4/17/136
s 35
f 36/26/137 35/20/138 6/22/139
f 6/22/139 35/20/138 5/16/140
s 36
f 31/6/141 36/26/142 1/2/143
f 1/2/143 36/26/142 6/22/144
