# This file uses centimeters as units for non-parametric coordinates.

g default
v -0.500000 0.000000 0.500000
v 0.500000 0.000000 0.500000
v -0.500000 1.000000 0.500000
v 0.500000 1.000000 0.500000
v -0.500000 1.000000 -0.500000
v 0.500000 1.000000 -0.500000
v -0.500000 0.000000 -0.500000
v 0.500000 0.000000 -0.500000
vt 0.001494 0.749004
vt 0.001494 0.500000
vt 0.250498 0.500000
vt 0.250498 0.749004
vt 0.250499 0.998008
vt 0.499503 0.998007
vt 0.499502 0.500000
vt 0.499502 0.749004
vt 0.250498 0.001992
vt 0.250498 0.250996
vt 0.748506 0.500000
vt 0.748506 0.749004
vt 0.499502 0.001992
vt 0.499502 0.250996
vn 0.000000 0.000000 1.000000
vn 0.000000 0.000000 1.000000
vn 0.000000 0.000000 1.000000
vn 0.000000 0.000000 1.000000
vn 0.000000 1.000000 0.000000
vn 0.000000 1.000000 0.000000
vn 0.000000 1.000000 0.000000
vn 0.000000 1.000000 0.000000
vn 0.000000 0.000000 -1.000000
vn 0.000000 0.000000 -1.000000
vn 0.000000 0.000000 -1.000000
vn 0.000000 0.000000 -1.000000
vn 0.000000 -1.000000 0.000000
vn 0.000000 -1.000000 0.000000
vn 0.000000 -1.000000 0.000000
vn 0.000000 -1.000000 0.000000
vn 1.000000 0.000000 0.000000
vn 1.000000 0.000000 0.000000
vn 1.000000 0.000000 0.000000
vn 1.000000 0.000000 0.000000
vn -1.000000 0.000000 0.000000
vn -1.000000 0.000000 0.000000
vn -1.000000 0.000000 0.000000
vn -1.000000 0.000000 0.000000
s 1
g pCube1
f 1/1/1 2/2/2 3/4/3
f 3/4/3 2/2/2 4/3/4
s 2
f 3/4/5 4/3/6 5/8/7
f 5/8/7 4/3/6 6/7/8
s 3
f 5/8/9 6/7/10 7/12/11
f 7/12/11 6/7/10 8/11/12
s 4
f 7/13/13 8/14/14 1/9/15
f 1/9/15 8/14/14 2/10/16
s 5
f 2/10/17 8/14/18 4/3/19
f 4/3/19 8/14/18 6/7/20
s 6
f 7/6/21 1/5/22 5/8/23
f 5/8/23 1/5/22 3/4/24
