# This file uses centimeters as units for non-parametric coordinates.

g default
v -10.965106 -10.965106 -10.965106
v -10.965106 -10.965106 10.965106
v -10.965106 10.965106 -10.965106
v -10.965106 10.965106 10.965106
v 10.965106 10.965106 -10.965106
v 10.965106 10.965106 10.965106
v 10.965106 -10.965106 -10.965106
v 10.965106 -10.965106 10.965106
v 10.965106 -10.965106 32.895319
v -10.965106 -10.965106 32.895319
v 10.965106 10.965106 32.895319
v -10.965106 10.965106 32.895319
v 10.965106 -10.965106 54.825532
v -10.965106 -10.965106 54.825532
v 10.965106 10.965106 54.825532
v -10.965106 10.965106 54.825532
v 10.965106 -10.965106 76.755745
v -10.965106 -10.965106 76.755745
v 10.965106 10.965106 76.755745
v -10.965106 10.965106 76.755745
v -32.895319 -10.965106 -10.965106
v -32.895319 -10.965106 10.965106
v -32.895319 10.965106 10.965106
v -32.895319 10.965106 -10.965106
v -54.825532 -10.965106 -10.965106
v -54.825532 -10.965106 10.965106
v -54.825532 10.965106 10.965106
v -54.825532 10.965106 -10.965106
v -76.755745 -10.965106 -10.965106
v -76.755745 -10.965106 10.965106
v -76.755745 10.965106 10.965106
v -76.755745 10.965106 -10.965106
v 0.000000 22.015266 21.930213
v 0.000000 22.015266 43.860426
v 0.000000 22.015266 65.790639
v -21.930213 22.015266 0.000000
v -43.860426 22.015266 0.000000
v -65.790639 22.015266 0.000000
v -6.579064 10.965106 -6.579064
v -6.579064 10.965106 6.579064
v 6.579064 10.965106 6.579064
v 6.579064 10.965106 -6.579064
v 0.000000 57.419781 0.000000
vt 0.458517 0.775940
vt 0.556054 0.775847
vt 0.556147 0.873383
vt 0.458610 0.873477
vt 0.507426 0.922577
vt 0.945679 0.068858
vt 0.777726 0.334068
vt 0.849438 0.069443
vt 0.849925 0.664961
vt 0.946268 0.872844
vt 0.752388 0.567424
vt 0.849925 0.567424
vt 0.654851 0.664961
vt 0.654851 0.567424
vt 0.269532 0.771963
vt 0.557314 0.664961
vt 0.557314 0.567424
vt 0.606086 0.714107
vt 0.459780 0.664961
vt 0.459780 0.567424
vt 0.508548 0.714107
vt 0.044560 0.032945
vt 0.168122 0.032945
vt 0.168122 0.156506
vt 0.044560 0.156506
vt 0.291683 0.032945
vt 0.291683 0.156506
vt 0.168122 0.280067
vt 0.044560 0.280067
vt 0.415244 0.032945
vt 0.415244 0.156506
vt 0.168122 0.403628
vt 0.044560 0.403628
vt 0.538805 0.032945
vt 0.538805 0.156506
vt 0.168122 0.527189
vt 0.044560 0.527189
vt 0.362243 0.567424
vt 0.614658 0.770651
vt 0.853226 0.759280
vt 0.362243 0.664961
vt 0.411011 0.714107
vt 0.068372 0.776311
vt 0.165908 0.776218
vt 0.166001 0.873755
vt 0.068465 0.873848
vt 0.263445 0.776126
vt 0.263537 0.873662
vt 0.360981 0.776033
vt 0.361074 0.873570
vt 0.214815 0.922855
vt 0.752253 0.906836
vt 0.693336 0.968567
vt 0.312352 0.922762
vt 0.409889 0.922670
vt 0.069634 0.664962
vt 0.069633 0.567425
vt 0.167170 0.567425
vt 0.167170 0.665056
vt 0.264706 0.567424
vt 0.264707 0.665056
vt 0.922498 0.764626
vt 0.971171 0.715858
vt 0.602883 0.071843
vt 0.927016 0.950901
vt 0.313475 0.714013
vt 0.848662 0.775566
vt 0.848720 0.873138
vt 0.083558 0.718656
vt 0.751126 0.775660
vt 0.454624 0.692820
vt 0.801256 0.955558
vt 0.653589 0.775753
vt 0.644585 0.919844
vt 0.503380 0.741577
vt 0.689644 0.069820
vt 0.946598 0.970333
vt 0.849062 0.970710
vt 0.926789 0.892379
vt 0.868267 0.892606
vt 0.868494 0.951127
vt 0.775300 0.069443
vt 0.318028 0.722994
vt 0.752341 0.665008
vt 0.703625 0.955650
vt 0.604961 0.922388
vt 0.595705 0.968659
vt 0.653683 0.873384
vt 0.132531 0.767378
vt 0.702498 0.922264
vt 0.181189 0.718563
vt 0.405749 0.741670
vt 0.751220 0.873291
vt 0.719281 0.767615
vt 0.800069 0.922166
vt 0.767825 0.718622
vt 0.848720 0.873138
vt 0.670253 0.718964
vt 0.565732 0.721883
vt 0.755595 0.759280
vt 0.804552 0.710512
vt 0.663364 0.721883
vt 0.215938 0.713982
vt 0.922466 0.667090
vt 0.873540 0.715858
vt 0.873540 0.715858
vt 0.971171 0.715858
vt 0.118402 0.714014
vt 0.703667 0.714060
vt 0.220480 0.723289
vn -1.000000 0.000000 0.000000
vn -1.000000 0.000000 0.000000
vn -1.000000 0.000000 0.000000
vn -1.000000 0.000000 0.000000
vn 0.277594 0.919719 -0.277594
vn 0.000000 1.000000 0.000000
vn 0.277594 0.919719 0.277594
vn 1.000000 0.000000 -0.000000
vn 1.000000 0.000000 -0.000000
vn 1.000000 0.000000 -0.000000
vn 1.000000 0.000000 -0.000000
vn 0.000000 -1.000000 0.000000
vn 0.000000 -1.000000 0.000000
vn 0.000000 -1.000000 0.000000
vn 0.000000 -1.000000 0.000000
vn 0.000000 0.000000 1.000000
vn 0.000000 0.000000 1.000000
vn 0.000000 0.000000 1.000000
vn 0.000000 0.000000 1.000000
vn -0.000000 0.000000 -1.000000
vn -0.000000 0.000000 -1.000000
vn -0.000000 0.000000 -1.000000
vn -0.000000 0.000000 -1.000000
vn 0.000000 -1.000000 0.000000
vn 0.000000 -1.000000 0.000000
vn 1.000000 0.000000 -0.000000
vn 1.000000 0.000000 -0.000000
vn 0.449982 0.893038 -0.000000
vn 0.000000 1.000000 0.000000
vn -0.449982 0.893038 0.000000
vn -1.000000 0.000000 0.000000
vn -1.000000 0.000000 0.000000
vn -1.000000 0.000000 0.000000
vn -1.000000 0.000000 0.000000
vn 0.000000 -1.000000 0.000000
vn 0.000000 -1.000000 0.000000
vn 1.000000 0.000000 -0.000000
vn 1.000000 0.000000 -0.000000
vn 0.449982 0.893038 -0.000000
vn 0.000000 1.000000 0.000000
vn -0.449982 0.893038 0.000000
vn -1.000000 0.000000 0.000000
vn -1.000000 0.000000 0.000000
vn 0.000000 -1.000000 0.000000
vn 0.000000 -1.000000 0.000000
vn 1.000000 0.000000 -0.000000
vn 1.000000 0.000000 -0.000000
vn 0.410351 0.814385 0.410351
vn 0.000000 1.000000 0.000000
vn -0.410351 0.814385 0.410351
vn -1.000000 0.000000 0.000000
vn -1.000000 0.000000 0.000000
vn 0.000000 -1.000000 0.000000
vn 0.000000 -1.000000 0.000000
vn 0.000000 0.000000 1.000000
vn 0.000000 0.000000 1.000000
vn 0.000000 0.000000 1.000000
vn 0.000000 0.000000 1.000000
vn 0.000000 0.893037 0.449982
vn 0.000000 1.000000 0.000000
vn -0.000000 0.893037 -0.449982
vn -0.000000 0.000000 -1.000000
vn -0.000000 0.000000 -1.000000
vn 0.000000 -1.000000 0.000000
vn 0.000000 -1.000000 0.000000
vn 0.000000 0.000000 1.000000
vn 0.000000 0.000000 1.000000
vn 0.000000 0.893037 0.449982
vn 0.000000 1.000000 0.000000
vn -0.000000 0.893037 -0.449982
vn -0.000000 0.000000 -1.000000
vn -0.000000 0.000000 -1.000000
vn 0.000000 -1.000000 0.000000
vn 0.000000 -1.000000 0.000000
vn 0.000000 0.000000 1.000000
vn 0.000000 0.000000 1.000000
vn -0.410351 0.814385 0.410351
vn 0.000000 1.000000 0.000000
vn -0.410351 0.814385 -0.410351
vn -0.000000 0.000000 -1.000000
vn -0.000000 0.000000 -1.000000
vn 0.410351 0.814385 -0.410351
vn -0.410351 0.814385 -0.410351
vn 0.410351 0.814385 0.410351
vn 0.410351 0.814385 -0.410351
vn 0.000000 1.000000 0.000000
vn 0.000000 1.000000 0.000000
vn -0.277594 0.919719 -0.277594
vn -0.277594 0.919719 0.277594
vn 0.000000 1.000000 0.000000
vn 0.000000 1.000000 0.000000
s 1
g pCube1
f 29/1/1 30/2/2 32/4/3
f 32/4/3 30/2/2 31/3/4
s 2
f 42/6/5 43/7/6 41/8/7
s 3
f 5/9/8 6/84/9 7/12/10
f 7/12/10 6/84/9 8/11/11
s 4
f 7/22/12 8/23/13 1/25/14
f 1/25/14 8/23/13 2/24/15
s 5
f 18/38/16 17/20/17 20/41/18
f 20/41/18 17/20/17 19/19/19
s 6
f 7/43/20 1/44/21 5/46/22
f 5/46/22 1/44/21 3/45/23
s 4
f 2/24/15 8/23/13 10/27/24
f 10/27/24 8/23/13 9/26/25
s 3
f 8/11/11 6/84/9 9/14/26
f 9/14/26 6/84/9 11/13/27
s 7
f 11/107/28 33/62/29 12/105/30
s 8
f 4/56/31 2/57/32 12/59/33
f 12/59/33 2/57/32 10/58/34
s 4
f 10/27/24 9/26/25 14/31/35
f 14/31/35 9/26/25 13/30/36
s 3
f 9/14/26 11/13/27 13/17/37
f 13/17/37 11/13/27 15/16/38
s 7
f 15/102/39 34/39/40 16/99/41
s 8
f 12/59/33 10/58/34 16/61/42
f 16/61/42 10/58/34 14/60/43
s 4
f 14/31/35 13/30/36 18/35/44
f 18/35/44 13/30/36 17/34/45
s 3
f 13/17/37 15/16/38 17/20/46
f 17/20/46 15/16/38 19/19/47
s 7
f 19/19/48 35/42/49 20/41/50
s 8
f 16/61/42 14/60/43 20/41/51
f 20/41/51 14/60/43 18/38/52
s 4
f 1/25/14 2/24/15 21/29/53
f 21/29/53 2/24/15 22/28/54
s 11
f 2/67/55 4/97/56 22/70/57
f 22/70/57 4/97/56 23/93/58
s 12
f 23/92/59 36/71/60 24/75/61
s 6
f 3/45/23 1/44/21 24/48/62
f 24/48/62 1/44/21 21/47/63
s 4
f 21/29/53 22/28/54 25/33/64
f 25/33/64 22/28/54 26/32/65
s 11
f 22/70/57 23/93/58 26/73/66
f 26/73/66 23/93/58 27/88/67
s 12
f 27/87/68 37/74/69 28/53/70
s 6
f 24/48/62 21/47/63 28/50/71
f 28/50/71 21/47/63 25/49/72
s 4
f 25/33/64 26/32/65 29/37/73
f 29/37/73 26/32/65 30/36/74
s 11
f 26/73/66 27/88/67 30/2/75
f 30/2/75 27/88/67 31/3/76
s 12
f 31/3/77 38/5/78 32/4/79
s 6
f 28/50/71 25/49/72 32/4/80
f 32/4/80 25/49/72 29/1/81
s 7
f 6/110/82 4/83/83 33/15/29
f 33/108/29 4/56/83 12/59/30
f 6/84/82 33/109/29 11/13/28
f 11/63/28 12/106/30 34/104/40
f 34/103/40 12/59/30 16/61/41
f 11/13/28 34/18/40 15/16/39
f 15/40/39 16/100/41 35/101/49
f 35/66/49 16/61/41 20/41/50
f 15/16/39 35/21/49 19/19/48
s 12
f 4/98/84 3/96/85 36/94/60
f 36/51/60 3/45/85 24/48/61
f 4/97/84 36/95/60 23/93/59
f 23/69/59 24/91/61 37/89/69
f 37/54/69 24/48/61 28/50/70
f 23/93/59 37/90/69 27/88/68
f 27/72/68 28/85/70 38/52/78
f 38/55/78 28/50/70 32/4/79
f 27/88/68 38/86/78 31/3/77
s 2
f 3/78/86 4/68/87 39/81/88
f 39/81/88 4/68/87 40/80/89
f 4/68/87 6/10/90 40/80/89
f 40/80/89 6/10/90 41/79/7
f 6/10/90 5/77/91 41/79/7
f 41/79/7 5/77/91 42/65/5
f 5/77/91 3/78/86 42/65/5
f 42/65/5 3/78/86 39/81/88
f 39/76/88 40/82/89 43/7/6
f 43/7/6 40/82/89 41/8/7
f 39/76/88 43/7/6 42/64/5
