# This file uses centimeters as units for non-parametric coordinates.

g default
v 0.500000 0.000000 -0.866025
v -0.500000 0.000000 -0.866026
v -1.000000 0.000000 -0.000000
v -0.500000 0.000000 0.866025
v 0.500000 0.000000 0.866025
v 1.000000 0.000000 0.000000
v 0.500000 1.000000 -0.866025
v -0.500000 1.000000 -0.866026
v -1.000000 1.000000 -0.000000
v -0.500000 1.000000 0.866025
v 0.500000 1.000000 0.866025
v 1.000000 1.000000 0.000000
v 0.000000 0.000000 0.000000
v 0.000000 1.000000 0.000000
vt 0.579163 0.639319
vt 0.677093 0.808937
vt 0.501596 0.910260
vt 0.403667 0.740642
vt 0.727754 0.896685
vt 0.552258 0.998008
vt 0.211202 0.001992
vt 0.298951 0.153976
vt 0.123455 0.255299
vt 0.035706 0.103315
vt 0.103093 0.571023
vt 0.400274 0.329472
vt 0.224778 0.430795
vt 0.001770 0.746519
vt 0.309132 0.576901
vt 0.484628 0.475579
vt 0.785203 0.294204
vt 0.103092 0.922015
vt 0.204415 0.746519
vt 0.305738 0.922016
vt 0.785203 0.645197
vt 0.582557 0.294204
vt 0.683880 0.469701
vt 0.886525 0.469701
vn 0.000000 0.000000 -1.000000
vn 0.000000 0.000000 -1.000000
vn 0.000000 0.000000 -1.000000
vn 0.000000 0.000000 -1.000000
vn -0.866025 0.000000 -0.500000
vn -0.866025 0.000000 -0.500000
vn -0.866025 0.000000 -0.500000
vn -0.866025 0.000000 -0.500000
vn -0.866026 0.000000 0.500000
vn -0.866026 0.000000 0.500000
vn -0.866026 0.000000 0.500000
vn -0.866026 0.000000 0.500000
vn -0.000000 0.000000 1.000000
vn -0.000000 0.000000 1.000000
vn -0.000000 0.000000 1.000000
vn 0.000000 0.000000 1.000000
vn 0.866026 0.000000 0.500000
vn 0.866026 0.000000 0.500000
vn 0.866026 0.000000 0.500000
vn 0.866026 0.000000 0.500000
vn 0.866026 0.000000 -0.500000
vn 0.866025 0.000000 -0.500000
vn 0.866025 0.000000 -0.500000
vn 0.866026 0.000000 -0.500000
vn 0.000000 -1.000000 0.000000
vn 0.000000 -1.000000 0.000000
vn 0.000000 -1.000000 0.000000
vn 0.000000 -1.000000 0.000000
vn 0.000000 -1.000000 -0.000000
vn 0.000000 -1.000000 -0.000000
vn 0.000000 -1.000000 0.000000
vn 0.000000 1.000000 0.000000
vn 0.000000 1.000000 -0.000000
vn 0.000000 1.000000 0.000000
vn 0.000000 1.000000 -0.000000
vn 0.000000 1.000000 0.000000
vn 0.000000 1.000000 0.000000
vn 0.000000 1.000000 0.000000
s 1
g pCylinder1
f 1/1/1 2/2/2 7/4/3
f 7/4/3 2/2/2 8/3/4
s 2
f 2/2/5 3/5/6 8/3/7
f 8/3/7 3/5/6 9/6/8
s 3
f 3/7/9 4/8/10 9/10/11
f 9/10/11 4/8/10 10/9/12
s 4
f 4/8/13 5/12/14 10/9/15
f 10/9/15 5/12/14 11/13/16
s 5
f 5/12/17 6/16/18 11/13/19
f 11/13/19 6/16/18 12/15/20
s 6
f 6/16/21 1/1/22 12/15/23
f 12/15/23 1/1/22 7/4/24
s 7
f 2/21/25 1/1/26 13/23/27
f 3/24/28 2/21/25 13/23/27
f 4/17/29 3/24/28 13/23/27
f 5/22/30 4/17/29 13/23/27
f 6/16/31 5/22/30 13/23/27
f 1/1/26 6/16/31 13/23/27
s 8
f 7/4/32 8/20/33 14/19/34
f 8/20/33 9/18/35 14/19/34
f 9/18/35 10/14/36 14/19/34
f 10/14/36 11/11/37 14/19/34
f 11/11/37 12/15/38 14/19/34
f 12/15/38 7/4/32 14/19/34
